<svg width="387" height="76" viewBox="0 0 387 76" fill="none" xmlns="http://www.w3.org/2000/svg">
<g clip-path="url(#clip0_1_193)">
<path d="M26.13 60.35C21.17 60.35 16.71 59.19 12.76 56.88C8.81 54.57 5.69 51.23 3.42 46.89C1.14 42.54 0 37.31 0 31.21C0 25.11 1.14 19.84 3.42 15.47C5.69 11.11 8.81 7.76999 12.76 5.45999C16.72 3.14999 21.17 1.98999 26.13 1.98999C31.09 1.98999 35.56 3.14999 39.48 5.45999C43.4 7.76999 46.5 11.11 48.79 15.47C51.08 19.83 52.22 25.08 52.22 31.21C52.22 37.34 51.08 42.54 48.79 46.89C46.5 51.24 43.4 54.57 39.48 56.88C35.56 59.19 31.11 60.35 26.13 60.35ZM26.13 51.12C29.21 51.12 31.93 50.36 34.29 48.83C36.66 47.3 38.51 45.06 39.86 42.1C41.21 39.14 41.88 35.51 41.88 31.21C41.88 26.91 41.2 23.24 39.86 20.26C38.51 17.28 36.66 15.03 34.29 13.51C31.92 11.98 29.2 11.22 26.13 11.22C23.06 11.22 20.32 11.98 17.95 13.51C15.57 15.04 13.71 17.29 12.36 20.26C11.01 23.24 10.34 26.89 10.34 31.21C10.34 35.53 11.01 39.14 12.36 42.1C13.71 45.06 15.57 47.31 17.95 48.83C20.33 50.36 23.06 51.12 26.13 51.12Z" fill="#001A72"/>
<path d="M58.5901 75.53V16.94H68.4301V24H69.0401C69.5501 22.98 70.2701 21.88 71.2101 20.7C72.1501 19.52 73.4301 18.51 75.0501 17.67C76.6601 16.83 78.7301 16.41 81.2501 16.41C84.5301 16.41 87.4901 17.25 90.1401 18.93C92.7801 20.61 94.8901 23.08 96.4501 26.33C98.0101 29.58 98.8001 33.59 98.8001 38.35C98.8001 43.11 98.0401 47.01 96.5101 50.29C94.9801 53.57 92.8901 56.07 90.2301 57.79C87.5701 59.51 84.5601 60.37 81.2101 60.37C78.7901 60.37 76.7801 59.96 75.1601 59.13C73.5501 58.3 72.2501 57.31 71.2701 56.16C70.2901 55 69.5501 53.9 69.0401 52.86H68.6201V75.56H58.5901V75.53ZM78.4701 52.11C80.6801 52.11 82.5301 51.51 84.0201 50.32C85.5101 49.13 86.6301 47.48 87.4001 45.4C88.1601 43.31 88.5501 40.95 88.5501 38.3C88.5501 35.65 88.1701 33.3 87.4001 31.24C86.6401 29.18 85.5201 27.57 84.0401 26.4C82.5601 25.23 80.7101 24.65 78.4701 24.65C76.2301 24.65 74.4801 25.21 73.0001 26.33C71.5101 27.45 70.3801 29.03 69.6001 31.08C68.8201 33.13 68.4401 35.54 68.4401 38.31C68.4401 41.08 68.8301 43.47 69.6001 45.54C70.3701 47.61 71.5101 49.23 73.0101 50.38C74.5101 51.54 76.3301 52.12 78.4701 52.12V52.11Z" fill="#001A72"/>
<path d="M123.26 60.43C118.99 60.43 115.3 59.53 112.2 57.74C109.1 55.95 106.71 53.41 105.05 50.13C103.38 46.85 102.55 42.98 102.55 38.53C102.55 34.08 103.38 30.27 105.03 26.95C106.68 23.63 109.01 21.04 112.01 19.19C115.01 17.33 118.54 16.41 122.61 16.41C125.23 16.41 127.71 16.83 130.07 17.67C132.42 18.51 134.51 19.81 136.33 21.56C138.15 23.31 139.58 25.55 140.62 28.26C141.66 30.97 142.18 34.19 142.18 37.93V41.06H107.24V34.31H137.19L132.5 36.29C132.5 33.87 132.13 31.77 131.39 29.98C130.65 28.19 129.56 26.78 128.11 25.76C126.66 24.74 124.85 24.23 122.69 24.23C120.53 24.23 118.69 24.74 117.16 25.76C115.63 26.78 114.48 28.15 113.69 29.86C112.9 31.58 112.51 33.49 112.51 35.6V40.29C112.51 42.88 112.96 45.1 113.86 46.95C114.76 48.79 116.03 50.2 117.67 51.17C119.31 52.14 121.22 52.62 123.41 52.62C124.83 52.62 126.14 52.42 127.32 52.01C128.5 51.6 129.52 50.99 130.37 50.16C131.22 49.33 131.87 48.31 132.33 47.09L141.71 48.2C141.1 50.67 139.97 52.82 138.33 54.67C136.69 56.51 134.59 57.94 132.03 58.94C129.47 59.94 126.54 60.45 123.24 60.45L123.26 60.43Z" fill="#001A72"/>
<path d="M157.63 34.64V59.59H147.6V16.94H157.44V24.23H157.94C158.91 21.84 160.42 19.94 162.5 18.53C164.57 17.12 167.21 16.41 170.41 16.41C173.36 16.41 175.93 17.03 178.12 18.28C180.31 19.53 182.01 21.35 183.21 23.76C184.42 26.16 185.02 29.07 185.02 32.48V59.6H174.99V34.04C174.99 31.19 174.25 28.96 172.78 27.34C171.3 25.73 169.27 24.92 166.68 24.92C164.93 24.92 163.37 25.3 162.01 26.06C160.65 26.82 159.58 27.92 158.81 29.36C158.03 30.8 157.65 32.56 157.65 34.64H157.63Z" fill="#001A72"/>
<path d="M192.84 59.59V2.75H229.31V11.37H203.14V28.42H226.75V36.93H203.14V59.59H192.84Z" fill="#001A72"/>
<path d="M240.29 10.95C238.69 10.95 237.31 10.42 236.17 9.35001C235.03 8.28001 234.45 7.00001 234.45 5.50001C234.45 4.00001 235.02 2.68001 236.17 1.61001C237.31 0.54001 238.69 0.0100098 240.29 0.0100098C241.89 0.0100098 243.23 0.54001 244.37 1.61001C245.51 2.68001 246.09 3.98001 246.09 5.50001C246.09 7.02001 245.52 8.28001 244.37 9.35001C243.23 10.42 241.87 10.95 240.29 10.95ZM235.26 59.59V16.94H245.29V59.59H235.26Z" fill="#001A72"/>
<path d="M286.34 28.27L277.22 29.22C276.84 27.82 276.01 26.58 274.74 25.5C273.47 24.42 271.68 23.88 269.36 23.88C267.27 23.88 265.53 24.34 264.11 25.25C262.7 26.17 261.99 27.34 261.99 28.76C261.99 30.01 262.45 31.03 263.38 31.83C264.31 32.63 265.85 33.27 268.02 33.76L275.31 35.29C279.3 36.13 282.29 37.5 284.27 39.41C286.25 41.32 287.25 43.78 287.25 46.81C287.25 49.48 286.47 51.85 284.92 53.91C283.37 55.97 281.22 57.57 278.49 58.72C275.76 59.86 272.61 60.44 269.05 60.44C263.84 60.44 259.65 59.34 256.48 57.14C253.31 54.94 251.41 51.88 250.78 47.96L260.58 47.04C261.01 48.95 261.96 50.39 263.42 51.37C264.88 52.35 266.76 52.84 269.05 52.84C271.34 52.84 273.36 52.35 274.81 51.37C276.26 50.39 276.98 49.19 276.98 47.76C276.98 45.37 275.07 43.74 271.26 42.88L263.97 41.35C259.88 40.46 256.85 39.02 254.89 37.02C252.93 35.02 251.95 32.48 251.95 29.37C251.95 26.73 252.67 24.44 254.12 22.5C255.57 20.57 257.59 19.07 260.19 18C262.78 16.93 265.78 16.4 269.19 16.4C274.2 16.4 278.14 17.47 281 19.62C283.86 21.77 285.64 24.65 286.32 28.26L286.34 28.27Z" fill="#001A72"/>
<path d="M292.63 59.59V2.75H302.66V59.59H292.63ZM301.79 46.24L301.75 34.07H303.39L318.69 16.94H330.44L311.59 37.96H309.49L301.78 46.24H301.79ZM319.38 59.59L305.49 40.21L312.28 33.11L331.39 59.58H319.37L319.38 59.59Z" fill="#001A72"/>
<path d="M346.42 60.47C343.7 60.47 341.26 59.98 339.1 59C336.94 58.02 335.24 56.58 333.99 54.67C332.74 52.76 332.12 50.41 332.12 47.61C332.12 45.22 332.57 43.24 333.46 41.66C334.35 40.08 335.56 38.83 337.1 37.88C338.64 36.94 340.37 36.22 342.31 35.72C344.24 35.22 346.24 34.88 348.3 34.67C350.82 34.39 352.85 34.15 354.4 33.94C355.95 33.74 357.08 33.41 357.78 32.95C358.48 32.49 358.83 31.78 358.83 30.81V30.62C358.83 28.56 358.22 26.96 357 25.81C355.78 24.67 354 24.09 351.66 24.09C349.19 24.09 347.24 24.62 345.8 25.69C344.36 26.76 343.39 28.02 342.88 29.47L333.54 28.13C334.28 25.54 335.5 23.37 337.2 21.63C338.9 19.89 340.98 18.58 343.44 17.7C345.89 16.82 348.61 16.38 351.58 16.38C353.61 16.38 355.65 16.61 357.68 17.08C359.71 17.55 361.58 18.35 363.29 19.47C364.99 20.59 366.35 22.09 367.37 23.97C368.39 25.85 368.9 28.2 368.9 31.03V59.56H359.25V53.68H358.94C358.33 54.85 357.47 55.95 356.36 56.98C355.25 58.01 353.88 58.84 352.24 59.48C350.6 60.12 348.66 60.43 346.42 60.43V60.47ZM348.98 53.07C351.01 53.07 352.77 52.67 354.24 51.87C355.72 51.07 356.86 50 357.67 48.67C358.48 47.33 358.89 45.88 358.89 44.3V39.3C358.56 39.55 358.03 39.79 357.29 40C356.55 40.22 355.71 40.41 354.77 40.59C353.83 40.77 352.91 40.92 352 41.05C351.1 41.18 350.32 41.28 349.66 41.36C348.16 41.56 346.82 41.9 345.63 42.37C344.45 42.84 343.51 43.48 342.83 44.3C342.14 45.11 341.8 46.17 341.8 47.47C341.8 49.33 342.47 50.73 343.82 51.67C345.17 52.61 346.88 53.08 348.97 53.08L348.98 53.07Z" fill="#001A72"/>
<path d="M386.36 2.75V59.59H376.33V2.75H386.36Z" fill="#001A72"/>
</g>
<defs>
<clipPath id="clip0_1_193">
<rect width="386.36" height="75.53" fill="white"/>
</clipPath>
</defs>
</svg>
