<svg width="487" height="131" viewBox="0 0 487 131" fill="none" xmlns="http://www.w3.org/2000/svg">
<g clip-path="url(#clip0_1_128)">
<path d="M163.38 97.2C158.93 97.2 154.93 96.16 151.38 94.08C147.83 92 145.03 89.01 142.99 85.11C140.95 81.21 139.93 76.52 139.93 71.04C139.93 65.56 140.95 60.83 142.99 56.92C145.03 53.01 147.83 50.01 151.38 47.93C154.93 45.85 158.93 44.81 163.38 44.81C167.83 44.81 171.85 45.85 175.36 47.93C178.87 50.01 181.66 53 183.71 56.92C185.77 60.83 186.79 65.54 186.79 71.04C186.79 76.54 185.76 81.21 183.71 85.11C181.66 89.01 178.87 92 175.36 94.08C171.84 96.16 167.85 97.2 163.38 97.2ZM163.38 88.92C166.14 88.92 168.58 88.24 170.71 86.86C172.83 85.49 174.5 83.48 175.71 80.82C176.92 78.16 177.53 74.9 177.53 71.05C177.53 67.2 176.92 63.89 175.71 61.22C174.5 58.55 172.84 56.53 170.71 55.16C168.59 53.79 166.14 53.11 163.38 53.11C160.62 53.11 158.17 53.79 156.04 55.16C153.91 56.53 152.23 58.55 151.02 61.22C149.81 63.89 149.21 67.17 149.21 71.05C149.21 74.93 149.81 78.17 151.02 80.82C152.23 83.48 153.9 85.49 156.04 86.86C158.17 88.23 160.62 88.92 163.38 88.92Z" fill="#001A72"/>
<path d="M192.51 110.83V58.24H201.34V64.57H201.89C202.35 63.66 203 62.67 203.84 61.61C204.68 60.55 205.83 59.64 207.28 58.89C208.73 58.14 210.58 57.76 212.84 57.76C215.79 57.76 218.44 58.51 220.82 60.02C223.19 61.53 225.08 63.74 226.49 66.66C227.89 69.58 228.6 73.18 228.6 77.44C228.6 81.7 227.92 85.21 226.55 88.16C225.18 91.11 223.3 93.35 220.92 94.89C218.53 96.43 215.83 97.2 212.82 97.2C210.65 97.2 208.84 96.83 207.39 96.09C205.94 95.35 204.78 94.46 203.9 93.42C203.02 92.38 202.35 91.39 201.9 90.46H201.52V110.83H192.52H192.51ZM210.35 89.81C212.34 89.81 214 89.27 215.33 88.2C216.66 87.13 217.67 85.65 218.36 83.78C219.05 81.91 219.39 79.79 219.39 77.41C219.39 75.03 219.05 72.93 218.36 71.08C217.67 69.23 216.67 67.78 215.35 66.73C214.03 65.68 212.36 65.16 210.35 65.16C208.34 65.16 206.77 65.66 205.44 66.67C204.1 67.67 203.09 69.1 202.39 70.93C201.69 72.77 201.35 74.93 201.35 77.42C201.35 79.91 201.7 82.05 202.39 83.91C203.09 85.77 204.11 87.22 205.45 88.26C206.8 89.3 208.43 89.82 210.35 89.82V89.81Z" fill="#001A72"/>
<path d="M250.54 97.27C246.71 97.27 243.4 96.47 240.61 94.86C237.82 93.25 235.68 90.97 234.19 88.03C232.7 85.09 231.95 81.62 231.95 77.62C231.95 73.62 232.69 70.21 234.18 67.23C235.67 64.25 237.75 61.93 240.45 60.26C243.14 58.59 246.31 57.76 249.97 57.76C252.32 57.76 254.55 58.14 256.66 58.89C258.77 59.64 260.64 60.81 262.27 62.38C263.9 63.95 265.19 65.96 266.12 68.39C267.06 70.82 267.52 73.71 267.52 77.07V79.88H236.16V73.82H263.04L258.83 75.6C258.83 73.43 258.5 71.54 257.84 69.93C257.18 68.32 256.2 67.06 254.9 66.15C253.6 65.24 251.98 64.78 250.04 64.78C248.1 64.78 246.45 65.24 245.08 66.15C243.71 67.06 242.67 68.29 241.96 69.83C241.25 71.37 240.9 73.09 240.9 74.98V79.19C240.9 81.52 241.3 83.51 242.11 85.16C242.92 86.82 244.06 88.08 245.53 88.94C247 89.81 248.72 90.24 250.68 90.24C251.96 90.24 253.13 90.06 254.19 89.69C255.25 89.32 256.16 88.77 256.93 88.03C257.69 87.29 258.28 86.37 258.69 85.27L267.11 86.26C266.56 88.47 265.55 90.41 264.08 92.06C262.61 93.72 260.72 94.99 258.43 95.89C256.14 96.79 253.51 97.24 250.54 97.24V97.27Z" fill="#001A72"/>
<path d="M281.39 74.13V96.52H272.39V58.24H281.22V64.78H281.66C282.53 62.64 283.89 60.93 285.75 59.66C287.61 58.39 289.98 57.76 292.85 57.76C295.5 57.76 297.8 58.32 299.77 59.44C301.73 60.56 303.26 62.2 304.34 64.35C305.42 66.51 305.97 69.11 305.97 72.17V96.51H296.97V73.57C296.97 71.01 296.31 69.01 294.98 67.56C293.65 66.11 291.83 65.39 289.5 65.39C287.93 65.39 286.53 65.73 285.31 66.42C284.09 67.11 283.13 68.09 282.43 69.38C281.73 70.67 281.39 72.25 281.39 74.12V74.13Z" fill="#001A72"/>
<path d="M312.99 96.52V45.51H345.72V53.25H322.23V68.55H343.42V76.19H322.23V96.53H312.99V96.52Z" fill="#001A72"/>
<path d="M355.58 52.86C354.14 52.86 352.91 52.38 351.88 51.42C350.85 50.46 350.34 49.31 350.34 47.96C350.34 46.61 350.85 45.43 351.88 44.47C352.91 43.51 354.14 43.03 355.58 43.03C357.02 43.03 358.22 43.51 359.24 44.47C360.26 45.43 360.78 46.59 360.78 47.96C360.78 49.33 360.27 50.46 359.24 51.42C358.21 52.38 356.99 52.86 355.58 52.86ZM351.06 96.52V58.24H360.06V96.52H351.06Z" fill="#001A72"/>
<path d="M396.91 68.41L388.73 69.27C388.39 68.02 387.64 66.9 386.5 65.93C385.36 64.96 383.75 64.48 381.67 64.48C379.8 64.48 378.23 64.89 376.96 65.71C375.69 66.53 375.06 67.58 375.06 68.86C375.06 69.98 375.48 70.9 376.31 71.62C377.14 72.34 378.53 72.91 380.47 73.35L387.01 74.72C390.59 75.47 393.28 76.71 395.06 78.42C396.84 80.13 397.73 82.35 397.73 85.06C397.73 87.46 397.03 89.58 395.64 91.43C394.25 93.28 392.32 94.72 389.87 95.74C387.42 96.77 384.59 97.28 381.4 97.28C376.72 97.28 372.96 96.29 370.12 94.32C367.28 92.35 365.57 89.6 365 86.09L373.8 85.27C374.19 86.98 375.04 88.28 376.35 89.16C377.66 90.04 379.34 90.48 381.4 90.48C383.46 90.48 385.27 90.04 386.57 89.16C387.87 88.28 388.52 87.2 388.52 85.92C388.52 83.77 386.81 82.31 383.39 81.54L376.85 80.17C373.18 79.37 370.46 78.08 368.7 76.28C366.94 74.49 366.06 72.2 366.06 69.42C366.06 67.05 366.71 64.99 368.01 63.26C369.31 61.53 371.13 60.18 373.45 59.22C375.78 58.26 378.47 57.78 381.53 57.78C386.03 57.78 389.56 58.74 392.13 60.67C394.7 62.6 396.29 65.18 396.91 68.42V68.41Z" fill="#001A72"/>
<path d="M402.56 96.52V45.51H411.56V96.52H402.56ZM410.77 84.53L410.74 73.61H412.21L425.94 58.24H436.49L419.58 77.1H417.7L410.78 84.53H410.77ZM426.56 96.52L414.1 79.13L420.19 72.76L437.34 96.52H426.56Z" fill="#001A72"/>
<path d="M450.83 97.3C448.39 97.3 446.2 96.86 444.26 95.98C442.32 95.1 440.79 93.81 439.67 92.09C438.55 90.37 437.99 88.27 437.99 85.76C437.99 83.62 438.39 81.83 439.19 80.42C439.99 79.01 441.08 77.88 442.46 77.03C443.84 76.19 445.4 75.54 447.13 75.09C448.86 74.65 450.66 74.33 452.5 74.15C454.76 73.9 456.59 73.68 457.98 73.5C459.37 73.32 460.38 73.02 461.01 72.61C461.64 72.2 461.95 71.56 461.95 70.69V70.52C461.95 68.67 461.4 67.23 460.31 66.21C459.21 65.18 457.62 64.67 455.52 64.67C453.31 64.67 451.55 65.15 450.27 66.11C448.98 67.07 448.11 68.2 447.65 69.5L439.26 68.3C439.92 65.97 441.02 64.03 442.55 62.46C444.08 60.9 445.95 59.72 448.15 58.93C450.35 58.14 452.79 57.75 455.46 57.75C457.29 57.75 459.11 57.96 460.94 58.38C462.76 58.8 464.44 59.52 465.97 60.52C467.5 61.52 468.72 62.87 469.63 64.56C470.54 66.25 471 68.36 471 70.89V96.5H462.34V91.23H462.07C461.52 92.28 460.75 93.27 459.76 94.19C458.77 95.11 457.53 95.86 456.06 96.43C454.59 97 452.85 97.29 450.84 97.29L450.83 97.3ZM453.13 90.66C454.96 90.66 456.53 90.3 457.85 89.58C459.17 88.86 460.2 87.9 460.93 86.7C461.66 85.5 462.02 84.19 462.02 82.78V78.3C461.72 78.53 461.24 78.74 460.58 78.93C459.92 79.12 459.17 79.3 458.32 79.46C457.47 79.62 456.65 79.76 455.84 79.87C455.03 79.98 454.33 80.08 453.74 80.14C452.39 80.32 451.19 80.62 450.13 81.05C449.07 81.47 448.23 82.05 447.61 82.78C446.99 83.51 446.69 84.46 446.69 85.62C446.69 87.29 447.29 88.54 448.51 89.39C449.72 90.23 451.26 90.66 453.13 90.66Z" fill="#001A72"/>
<path d="M486.68 45.5V96.51H477.68V45.5H486.68Z" fill="#001A72"/>
<path d="M30.3 52.06L29.93 51.72C25.6 57.54 23.02 64.74 23.02 72.54C23.02 91.82 38.71 107.51 57.99 107.51C77.27 107.51 92.96 91.82 92.96 72.54C92.96 64.74 90.38 57.54 86.05 51.72L85.62 52.11C84.35 53.27 83.07 54.42 81.79 55.57C85.21 60.36 87.25 66.21 87.25 72.54C87.25 88.67 74.12 101.8 57.99 101.8C41.86 101.8 28.73 88.67 28.73 72.54C28.73 66.22 30.76 60.37 34.18 55.58C32.89 54.41 31.6 53.24 30.3 52.06Z" fill="#001A72"/>
<path d="M23.5 45.71C22.79 44.98 22.12 44.2 21.47 43.4C15.11 51.38 11.3 61.47 11.3 72.44C11.3 98.19 32.25 119.14 58 119.14C83.75 119.14 104.7 98.19 104.7 72.44C104.7 61.47 100.89 51.38 94.53 43.4C93.88 44.2 93.2 44.98 92.5 45.71L91.06 47.1L90.51 47.61C95.79 54.5 98.94 63.11 98.94 72.45C98.94 95.02 80.58 113.38 58.01 113.38C35.44 113.38 17.08 95.02 17.08 72.45C17.08 63.12 20.23 54.51 25.51 47.61L24.84 46.99L23.52 45.71H23.5Z" fill="#001A72"/>
<path d="M100.26 32.92C99.57 34.87 98.71 36.77 97.69 38.59C105.52 47.73 110.27 59.59 110.27 72.55C110.27 101.38 86.82 124.83 57.99 124.83C29.16 124.83 5.71 101.37 5.71 72.54C5.71 59.58 10.46 47.73 18.29 38.58C17.27 36.77 16.41 34.87 15.72 32.91C5.98 43.29 0 57.22 0 72.54C0 104.51 26.01 130.53 57.99 130.53C89.97 130.53 115.98 104.52 115.98 72.54C115.98 57.23 110 43.29 100.27 32.92H100.26Z" fill="#001A72"/>
<path d="M85.45 9.63C81.33 13.05 55.61 36.45 53.44 38.54L51.8 40.12L50.9 41.06C50.62 41.38 50.35 41.71 50.08 42.04C49.02 43.37 48.1 44.81 47.35 46.32C45.82 49.33 45.08 52.73 45.24 56.03C45.31 57.68 45.64 59.3 46.16 60.83C46.42 61.61 46.72 62.29 47.04 63.01C47.36 63.72 47.69 64.42 48.07 65.12C48.2 64.33 48.27 63.56 48.33 62.78C48.4 62.01 48.41 61.21 48.48 60.5C48.59 59.05 48.78 57.65 49.08 56.3C49.7 53.61 50.54 51.86 51.89 49.58C52.69 48.24 53.71 47.03 54.8 45.86C56.44 44.09 58.17 42.42 59.96 40.81C65.01 36.29 79.56 23.1 85.45 17.71V9.64001V9.63Z" fill="#001A72"/>
<path d="M82.03 33.29C84.27 30.77 85.13 29.19 85.44 24.66L85.37 22.85L58.44 48.64C56.42 50.92 54.11 52.94 52.71 55.87C51.3 58.77 50.43 63.09 50.69 66.35C50.81 67.98 51.16 69.57 51.68 71.08C51.94 71.85 52.24 72.53 52.53 73.26C52.82 73.98 53.13 74.69 53.47 75.4C53.51 73.87 53.44 72.31 53.41 70.84C53.39 69.38 53.49 67.96 53.72 66.6C54.19 63.87 56.5 57.91 59.58 54.78L82.04 33.29H82.03Z" fill="#001A72"/>
<path d="M90.09 17.87L90.06 20.83C90.04 21.71 89.99 22.59 89.88 23.46C89.44 26.95 89.32 29.59 87.51 32.6C86.6 34.11 84.5 36.26 83.29 37.54L82.36 38.49L81.29 39.52L79.15 41.58C76.3 44.33 73.4 47.06 70.58 49.87L66.34 54.09L64.23 56.22L63.18 57.29L62.07 58.48C59.19 61.77 57.18 65.91 56.64 70.24C56.37 72.4 56.46 74.58 56.92 76.65L57.1 77.42L57.33 78.18C57.48 78.69 57.63 79.16 57.82 79.63C58.18 80.58 58.54 81.52 58.95 82.46C59.13 80.43 59 78.36 59.19 76.49C59.36 74.6 59.73 72.78 60.31 71.05C61.49 67.61 63.43 64.56 65.9 61.99L66.86 61.05L67.94 60.04L70.12 58.03L74.51 54.04C77.47 51.4 80.39 48.72 83.33 46.04L85.53 44.02L86.63 43.01L87.81 41.87C89.35 40.28 91.78 38.32 92.93 36.43C95.25 32.66 95.66 28.56 96.12 24.16C96.24 23.06 96.29 21.95 96.3 20.85L96.28 17.86L96.18 11.9C96.14 7.94 96.02 3.97 95.87 0L90.09 5.42V17.88V17.87Z" fill="#001A72"/>
<path d="M42.87 47.43C40.86 45.48 38.84 43.54 36.83 41.6L34.69 39.54L33.62 38.51L32.69 37.56C31.48 36.28 30.41 34.88 29.5 33.37C27.69 30.36 26.54 26.96 26.1 23.48C25.99 22.61 25.94 21.73 25.92 20.85L25.89 17.89V5.42L20.11 0C19.95 3.97 19.84 7.94 19.77 11.91L19.67 17.87L19.65 20.86C19.65 21.97 19.71 23.07 19.83 24.17C20.29 28.58 21.78 32.87 24.09 36.64C25.25 38.53 26.6 40.3 28.14 41.88L29.32 43.02L30.42 44.03L32.62 46.05C35.56 48.73 38.49 51.41 41.44 54.05L42.23 54.77C42.23 54.77 42.23 54.72 42.23 54.69C42.19 54.3 42.15 53.91 42.14 53.52C42.04 51.48 42.29 49.41 42.85 47.42L42.87 47.43Z" fill="#001A72"/>
<path d="M31.08 9.63L31.11 17.7C31.11 17.7 46.12 31.75 50.61 35.8C51.33 35.13 52.98 33.6 55.19 31.59L31.08 9.63Z" fill="#001A72"/>
<path d="M31.08 22.86L47.98 38.37L47.82 38.57C47.54 38.89 47.27 39.22 47 39.55C46.13 40.65 45.36 41.82 44.69 43.04C42.28 40.97 35.03 33.52 35.03 33.52C35.03 33.52 31.08 29.39 31.08 22.86Z" fill="#001A72"/>
</g>
<defs>
<clipPath id="clip0_1_128">
<rect width="486.68" height="130.53" fill="white"/>
</clipPath>
</defs>
</svg>
